<svg width="5955" height="4402" viewBox="0 0 5955 4402" fill="none" xmlns="http://www.w3.org/2000/svg">
<path fill-rule="evenodd" clip-rule="evenodd" d="M2829.83 522.748C3243.15 563.008 3703.92 506.882 4035.92 705.313C4367.89 903.728 4423.95 1269.08 4585.38 1572.02C4746.56 1874.49 5013.08 2159.35 4985.2 2486.73C4956.88 2819.19 4713.84 3118.75 4432.46 3367.17C4163.4 3604.71 3789.7 3731.83 3423.32 3865.66C3045.7 4003.59 2667.46 4207.67 2255.32 4162.42C1844.08 4117.26 1577.62 3813.24 1237.2 3625.62C882.063 3429.89 347.912 3354.8 204.622 3032.2C60.0043 2706.61 444.386 2386.39 537.009 2049.21C619.776 1747.91 537.355 1423.79 721.181 1151.76C918.628 859.583 1265.52 535.079 1658 418.001C2047.07 301.939 2417.02 482.536 2829.83 522.748Z" stroke="#DBFF29" stroke-width="11"/>
<path fill-rule="evenodd" clip-rule="evenodd" d="M3212.06 409.665C3625.38 449.933 4085.8 396.035 4418.37 590.826C4750.92 785.601 4808.22 1143.05 4970.65 1439.69C5132.82 1735.86 5358.74 2009.87 5332 2330C5304.84 2655.1 5016.42 2951.65 4736 3194C4467.86 3425.75 4201.79 3575.91 3836 3706C3458.99 3840.09 3062.52 4013.31 2650.36 3968.16C2239.1 3923.11 1971.68 3625.19 1630.73 3440.95C1275.04 3248.76 740.805 3174.16 596.446 2858.34C450.749 2539.58 833.89 2227.22 925.312 1897.65C1007.01 1603.15 923.49 1285.97 1106.31 1020.31C1302.68 734.974 1595.69 467.661 1987.63 354.002C2376.17 241.329 2799.25 369.445 3212.06 409.665Z" stroke="#DBFF29" stroke-width="11"/>
<path fill-rule="evenodd" clip-rule="evenodd" d="M3520.49 252.439C3933.81 292.699 4394.59 236.573 4726.58 435.004C5058.55 633.419 5114.61 998.771 5276.04 1301.72C5437.22 1604.18 5703.75 1889.04 5675.86 2216.42C5647.54 2548.88 5404.5 2848.44 5123.12 3096.86C4854.06 3334.4 4480.36 3461.52 4113.98 3595.35C3736.37 3733.28 3358.12 3937.36 2945.98 3892.11C2534.74 3846.95 2268.28 3542.93 1927.86 3355.31C1572.73 3159.58 1038.57 3084.49 895.284 2761.89C750.666 2436.3 1135.05 2116.08 1227.67 1778.9C1310.44 1477.6 1228.02 1153.48 1411.84 881.455C1609.29 589.274 1903.35 315.31 2295.83 198.231C2684.91 82.1694 3107.68 212.228 3520.49 252.439Z" stroke="#DBFF29" stroke-width="11"/>
</svg>
