<svg width="876" height="805" viewBox="0 0 876 805" fill="none" xmlns="http://www.w3.org/2000/svg">
<mask id="mask0_171_267" style="mask-type:alpha" maskUnits="userSpaceOnUse" x="120" y="145" width="630" height="512">
<path d="M729.707 576.621C671.839 694.26 450.084 667.04 293.828 590.903C137.573 514.766 85.7796 351.872 143.647 234.233C201.515 116.594 402.754 126.316 559.009 202.453C715.264 278.59 787.575 458.982 729.707 576.621Z" fill="#E7E7E7"/>
</mask>
<g mask="url(#mask0_171_267)">
<rect width="857.25" height="839.557" transform="matrix(0.997085 -0.0763041 0.0769308 0.997036 3.26172 38.002)" fill="#DBFF29"/>
<path d="M710.051 633.124C693.248 654.576 656.034 654.553 626.931 633.073C597.829 611.593 587.858 576.79 604.661 555.338C621.464 533.886 658.678 533.909 687.781 555.389C716.883 576.869 726.854 611.672 710.051 633.124Z" fill="#FF42CA"/>
<path d="M755.496 266.87C738.693 288.322 701.479 288.299 672.377 266.819C643.274 245.339 633.303 210.536 650.107 189.084C666.91 167.632 704.124 167.655 733.226 189.135C762.329 210.615 772.299 245.418 755.496 266.87Z" fill="#FF42CA"/>
<path d="M770.528 462.046C749.036 489.483 701.438 489.454 664.215 461.98C626.991 434.506 614.238 389.992 635.73 362.554C657.222 335.117 704.82 335.146 742.043 362.62C779.267 390.094 792.02 434.608 770.528 462.046Z" fill="#FF42CA"/>
<path d="M367.923 318.064C344.587 347.856 292.905 347.824 252.488 317.993C212.07 288.161 198.223 239.827 221.559 210.035C244.895 180.243 296.577 180.275 336.995 210.106C377.412 239.938 391.259 288.272 367.923 318.064Z" fill="#FF42CA"/>
<path d="M290.004 685.584C273.201 707.036 235.987 707.013 206.885 685.533C177.782 664.053 167.811 629.25 184.614 607.798C201.417 586.346 238.631 586.369 267.734 607.849C296.837 629.329 306.807 664.132 290.004 685.584Z" fill="#FF42CA"/>
<path d="M312.801 501.819C295.998 523.271 258.784 523.248 229.681 501.768C200.579 480.288 190.608 445.485 207.411 424.033C224.214 402.581 261.428 402.604 290.531 424.085C319.633 445.565 329.604 480.368 312.801 501.819Z" fill="#FF42CA"/>
<path d="M561.982 275.309C551.234 289.031 527.431 289.016 508.815 275.276C490.2 261.537 483.822 239.275 494.57 225.554C505.318 211.832 529.122 211.847 547.737 225.587C566.352 239.326 572.73 261.588 561.982 275.309Z" fill="#FF42CA"/>
<path d="M530.68 458.123C513.877 479.575 476.663 479.552 447.56 458.072C418.458 436.592 408.487 401.789 425.29 380.337C442.093 358.885 479.307 358.908 508.41 380.388C537.512 401.868 547.483 436.671 530.68 458.123Z" fill="#FF42CA"/>
<path d="M505.306 662.559C482.991 691.048 433.57 691.017 394.92 662.491C356.271 633.965 343.03 587.745 365.345 559.256C387.66 530.767 437.081 530.798 475.731 559.324C514.38 587.851 527.621 634.07 505.306 662.559Z" fill="#FF42CA"/>
</g>
</svg>
