<svg width="893" height="911" viewBox="0 0 893 911" fill="none" xmlns="http://www.w3.org/2000/svg">
<mask id="mask0_171_303" style="mask-type:alpha" maskUnits="userSpaceOnUse" x="98" y="179" width="640" height="641">
<ellipse rx="319.628" ry="318.997" transform="matrix(-0.937451 -0.348117 0.343807 -0.93904 417.936 499.634)" fill="#C9C9C9"/>
</mask>
<g mask="url(#mask0_171_303)">
<ellipse rx="341.008" ry="339.876" transform="matrix(-0.676385 -0.739081 0.737692 -0.672345 413.309 519.018)" fill="#FF42CA"/>
<ellipse rx="341.008" ry="339.876" transform="matrix(-0.676385 -0.739081 0.737692 -0.672345 345.219 597.803)" fill="#FF42CA"/>
<ellipse rx="341.008" ry="339.876" transform="matrix(-0.676385 -0.739081 0.737692 -0.672345 277.141 676.601)" fill="#FF42CA"/>
<ellipse rx="341.008" ry="339.876" transform="matrix(-0.676385 -0.739081 0.737692 -0.672345 208.743 753.094)" fill="#FF42CA"/>
<ellipse rx="341.008" ry="339.876" transform="matrix(-0.676385 -0.739081 0.737692 -0.672345 135.352 840.996)" fill="#FF42CA"/>
<ellipse rx="341.008" ry="339.876" transform="matrix(-0.676385 -0.739081 0.737692 -0.672345 72.8794 912.99)" fill="#FF42CA"/>
</g>
<path d="M408.738 564.089C473.937 384.763 457.407 358.837 325.652 522.311L454.266 340.121L598.682 169.998C735.432 252.081 858.06 461.658 703.089 659.251C509.376 906.242 530.114 759.661 555.696 678.465C581.278 597.268 623.959 471.701 485.416 637.889C346.874 804.076 343.538 743.415 408.738 564.089Z" fill="#6E4AFF"/>
<path d="M231.908 489.308C161.713 680.266 203.184 695.187 314.632 539.305L406.974 415.461L420.757 399.148L477.578 341.599L599.157 170.197C459.696 92.8095 216.382 90.4544 122.747 323.459C44.3039 518.659 96.8137 511.158 154.341 448.405C211.869 385.651 306.558 286.233 231.908 489.308Z" fill="#6E4AFF"/>
</svg>
