<svg width="745" height="804" viewBox="0 0 745 804" fill="none" xmlns="http://www.w3.org/2000/svg">
<mask id="mask0_171_89" style="mask-type:alpha" maskUnits="userSpaceOnUse" x="112" y="113" width="581" height="579">
<mask id="mask1_171_89" style="mask-type:alpha" maskUnits="userSpaceOnUse" x="112" y="113" width="581" height="579">
<mask id="mask2_171_89" style="mask-type:alpha" maskUnits="userSpaceOnUse" x="112" y="113" width="581" height="579">
<ellipse rx="291.205" ry="288.205" transform="matrix(-0.832036 0.554722 0.554722 0.832036 402.495 402.326)" fill="#E7E7E7"/>
</mask>
<g mask="url(#mask2_171_89)">
<rect width="644.056" height="859.954" transform="matrix(-0.321684 -0.946847 -0.945191 0.326517 884.961 569.514)" fill="#E7E7E7"/>
<ellipse rx="66.8426" ry="67.4474" transform="matrix(-0.321684 -0.946847 -0.945191 0.326517 337.735 566.282)" fill="white"/>
<ellipse rx="66.8426" ry="67.4474" transform="matrix(-0.321684 -0.946847 -0.945191 0.326517 437.587 283.551)" fill="white"/>
<ellipse rx="33.4213" ry="33.7237" transform="matrix(-0.321684 -0.946847 -0.945191 0.326517 315.639 396.398)" fill="white"/>
<ellipse rx="94.3455" ry="95.1992" transform="matrix(-0.321684 -0.946847 -0.945191 0.326517 146.415 299.052)" fill="white"/>
<ellipse rx="94.3455" ry="95.1992" transform="matrix(-0.321684 -0.946847 -0.945191 0.326517 624.443 537.599)" fill="white"/>
<ellipse rx="94.3455" ry="95.1992" transform="matrix(-0.321684 -0.946847 -0.945191 0.326517 660.505 276.886)" fill="white"/>
<ellipse rx="94.3455" ry="95.1992" transform="matrix(-0.321684 -0.946847 -0.945191 0.326517 105.86 546.576)" fill="white"/>
<ellipse rx="33.4213" ry="33.7237" transform="matrix(-0.321684 -0.946847 -0.945191 0.326517 448.94 421.794)" fill="white"/>
</g>
</mask>
<g mask="url(#mask1_171_89)">
<rect x="942.18" y="505.246" width="782.428" height="774.368" transform="rotate(146.308 942.18 505.246)" fill="#D9D9D9"/>
<ellipse cx="536.914" cy="426.385" rx="92.6183" ry="91.6642" transform="rotate(146.308 536.914 426.385)" fill="white"/>
<ellipse cx="460.015" cy="237.161" rx="69.3744" ry="68.6597" transform="rotate(146.308 460.015 237.161)" fill="white"/>
<ellipse cx="297.487" cy="505.902" rx="91.1879" ry="90.2485" transform="rotate(146.308 297.487 505.902)" fill="white"/>
<ellipse cx="230.699" cy="296.181" rx="44.3424" ry="43.8855" transform="rotate(146.308 230.699 296.181)" fill="white"/>
<ellipse cx="350.558" cy="349.384" rx="28.608" ry="28.3133" transform="rotate(146.308 350.558 349.384)" fill="white"/>
<ellipse cx="462.289" cy="597.101" rx="44.3424" ry="43.8855" transform="rotate(146.308 462.289 597.101)" fill="white"/>
</g>
</mask>
<g mask="url(#mask0_171_89)">
<rect x="1104.22" y="555.223" width="987.595" height="975.965" transform="rotate(146.308 1104.22 555.223)" fill="#29CBFF"/>
<path fill-rule="evenodd" clip-rule="evenodd" d="M676.774 337.827C660.435 342.162 658.186 366.384 644.755 376.867C629.436 388.823 612.25 403.936 593.29 402.987C574.449 402.044 565.37 379.259 548.331 372.04C530.463 364.469 503.624 374.448 491.329 359.787C478.818 344.869 497.652 318.291 488.724 300.965C478.201 280.541 443.277 277.916 437.598 255.504C432.532 235.511 443.226 207.122 462.404 197.098C489.29 183.046 521.55 202.541 550.961 196.256C561.821 193.935 564.169 176.08 574.885 173.059C586.178 169.877 597.302 184.664 608.174 180.131C624.975 173.124 629.958 140.274 647.532 142.764C663.789 145.068 651.723 176.538 662.962 187.895C672.073 197.101 688.325 194.186 701.262 197.055C730.739 203.591 783.817 186.559 789.114 215.868C794.34 244.781 719.248 238.969 714.166 268.457C708.729 300 782.406 315.78 766.954 344.447C752.332 371.574 706.655 329.9 676.774 337.827Z" fill="white"/>
<path fill-rule="evenodd" clip-rule="evenodd" d="M268.966 78.2196C297.379 89.9274 284.893 142.017 310.501 158.916C341.833 179.592 407.113 143.146 420.46 178.191C434.153 214.147 354.97 233.001 353.399 271.562C351.813 310.497 427.124 333.843 412.639 370.162C399.169 403.939 341.201 378.3 306.444 389.299C283.84 396.452 266.258 412.922 244.9 423.246C217.826 436.331 189.319 472.863 163.136 458.566C133.178 442.208 157.642 385.769 133.057 362.177C110.42 340.453 59.7991 367.91 41.8619 342.187C25.7492 319.08 51.1023 286.85 62.3711 260.808C71.4112 239.917 87.5138 223.785 101.042 205.425C112.932 189.288 124.251 173.582 137.641 158.651C153.666 140.782 167.533 120.988 188.014 108.445C212.902 93.2018 242.174 67.1799 268.966 78.2196Z" fill="white"/>
<path fill-rule="evenodd" clip-rule="evenodd" d="M510.368 651.864C502.577 685.916 531.536 722.109 516.248 753.621C501.149 784.745 465.95 803.077 433.398 810.52C400.597 818.019 368.262 805.436 337.116 794.577C305.74 783.637 261.537 779.772 251.445 747.08C240.128 710.42 295.423 675.113 288.51 637.116C281.186 596.866 218.046 586.576 214.78 545.582C211.814 508.34 237.476 453.984 273.66 450.697C322.194 446.288 343.251 535.526 391.69 529.512C434.562 524.188 432.554 415.192 473.826 425.843C513.268 436.022 456.651 514.367 475.728 551.199C489.36 577.517 545.546 554.827 555.268 583.079C564.093 608.723 516.571 624.751 510.368 651.864Z" fill="white"/>
<path fill-rule="evenodd" clip-rule="evenodd" d="M579.231 464.493C586.106 457.932 581.671 443.102 590.189 438.881C598.29 434.867 606.578 445.347 615.513 446.513C626.848 447.992 640.489 439.19 649.146 446.575C657.466 453.673 655.03 467.721 653.01 478.5C651.319 487.522 643.089 493.394 638.842 501.557C634.869 509.194 634.643 518.368 628.914 524.814C622.084 532.498 613.534 543.544 603.541 541.273C592.754 538.822 592.623 522.673 584.904 514.813C579.584 509.395 571.233 508.431 565.941 502.986C558.808 495.646 545.803 487.752 549.159 478.033C552.808 467.465 571.116 472.236 579.231 464.493Z" fill="white"/>
</g>
</svg>
