<svg width="2073" height="2073" viewBox="0 0 2073 2073" fill="none" xmlns="http://www.w3.org/2000/svg">
<path fill-rule="evenodd" clip-rule="evenodd" d="M1548.89 512.469C1573.83 541.093 1586.35 569.903 1577.02 578.598C1570.16 584.99 1553.29 578.841 1534.18 564.449C1547.2 584.519 1552.14 601.785 1545.29 608.177C1538.43 614.57 1521.55 608.42 1502.44 594.024C1515.46 614.097 1520.41 631.365 1513.55 637.758C1504.22 646.452 1476.36 631.946 1449.56 605.051L1454.69 600.264C1466.78 612.367 1478.93 621.712 1489.15 627.353C1495.05 630.612 1499.96 632.435 1503.61 633.033C1507.38 633.649 1508.54 632.803 1508.75 632.61C1508.96 632.417 1509.88 631.319 1509.53 627.515C1509.19 623.827 1507.72 618.806 1504.88 612.687C1499.97 602.095 1491.5 589.322 1480.28 576.416L1486.43 570.683C1498.52 582.786 1510.66 592.131 1520.89 597.772C1526.79 601.031 1531.7 602.854 1535.35 603.452C1539.12 604.068 1540.28 603.222 1540.49 603.029C1540.69 602.837 1541.62 601.738 1541.27 597.934C1540.93 594.246 1539.46 589.225 1536.62 583.106C1531.71 572.514 1523.24 559.741 1512.02 546.835L1518.17 541.104C1530.25 553.206 1542.4 562.551 1552.62 568.193C1558.53 571.451 1563.43 573.275 1567.08 573.872C1570.85 574.489 1572.02 573.643 1572.22 573.45C1572.43 573.257 1573.36 572.158 1573 568.355C1572.67 564.667 1571.19 559.646 1568.35 553.527C1563.45 542.935 1554.98 530.162 1543.75 517.255L1548.89 512.469Z" fill="#DBFF29"/>
<path fill-rule="evenodd" clip-rule="evenodd" d="M623.046 1467.77C596.244 1440.87 568.384 1426.37 559.056 1435.06C552.198 1441.45 557.146 1458.72 570.161 1478.79C551.054 1464.4 534.179 1458.25 527.321 1464.64C520.462 1471.03 525.412 1488.3 538.43 1508.37C519.32 1493.98 502.443 1487.83 495.584 1494.22C486.256 1502.92 498.77 1531.73 523.716 1560.35L528.852 1555.56C517.628 1542.66 509.159 1529.88 504.25 1519.29C501.413 1513.17 499.939 1508.15 499.6 1504.46C499.249 1500.66 500.175 1499.56 500.382 1499.37C500.589 1499.18 501.75 1498.33 505.519 1498.95C509.174 1499.54 514.079 1501.37 519.984 1504.63C530.205 1510.27 542.352 1519.61 554.438 1531.71L560.589 1525.98C549.365 1513.08 540.896 1500.3 535.986 1489.71C533.15 1483.59 531.676 1478.57 531.336 1474.88C530.986 1471.08 531.912 1469.98 532.119 1469.79C532.325 1469.59 533.487 1468.75 537.256 1469.36C540.911 1469.96 545.816 1471.79 551.721 1475.04C561.942 1480.69 574.088 1490.03 586.175 1502.13L592.324 1496.4C581.1 1483.5 572.631 1470.72 567.721 1460.13C564.885 1454.01 563.411 1448.99 563.071 1445.3C562.721 1441.5 563.647 1440.4 563.854 1440.21C564.06 1440.02 565.222 1439.17 568.991 1439.79C572.646 1440.38 577.551 1442.21 583.456 1445.47C593.677 1451.11 605.823 1460.45 617.91 1472.55L623.046 1467.77Z" fill="#DBFF29"/>
<path fill-rule="evenodd" clip-rule="evenodd" d="M510.975 522.198C539.522 497.329 568.29 484.896 577.01 494.251C583.42 501.13 577.322 517.99 562.988 537.059C583.017 524.1 600.264 519.201 606.675 526.079C613.087 532.958 606.986 549.821 592.649 568.893C612.681 555.93 629.931 551.029 636.342 557.908C645.062 567.263 630.639 595.087 603.827 621.817L599.026 616.666C611.092 604.612 620.4 592.49 626.01 582.283C629.251 576.387 631.06 571.486 631.647 567.832C632.252 564.064 631.403 562.9 631.209 562.692C631.016 562.485 629.915 561.556 626.113 561.895C622.427 562.224 617.411 563.684 611.302 566.503C600.726 571.383 587.98 579.816 575.109 591.005L569.359 584.837C581.425 572.783 590.732 560.661 596.343 550.454C599.584 544.557 601.393 539.657 601.98 536.003C602.585 532.234 601.736 531.07 601.542 530.863C601.349 530.656 600.248 529.726 596.446 530.066C592.76 530.395 587.744 531.855 581.635 534.674C571.059 539.553 558.313 547.987 545.442 559.176L539.694 553.009C551.759 540.955 561.067 528.833 566.677 518.626C569.919 512.73 571.727 507.829 572.314 504.175C572.92 500.407 572.07 499.243 571.877 499.036C571.684 498.828 570.582 497.899 566.78 498.238C563.094 498.567 558.079 500.027 551.969 502.846C541.393 507.726 528.648 516.16 515.776 527.349L510.975 522.198Z" fill="#DBFF29"/>
<path fill-rule="evenodd" clip-rule="evenodd" d="M1468.76 1451C1441.95 1477.73 1427.53 1505.55 1436.25 1514.91C1442.66 1521.78 1459.91 1516.89 1479.93 1503.93C1465.6 1523 1459.5 1539.86 1465.91 1546.73C1472.32 1553.61 1489.57 1548.71 1509.61 1535.75C1495.27 1554.82 1489.17 1571.68 1495.58 1578.56C1504.3 1587.92 1533.07 1575.49 1561.61 1550.62L1556.81 1545.47C1543.94 1556.66 1531.2 1565.09 1520.62 1569.97C1514.51 1572.79 1509.5 1574.25 1505.81 1574.58C1502.01 1574.92 1500.91 1573.99 1500.71 1573.78C1500.52 1573.57 1499.67 1572.41 1500.28 1568.64C1500.86 1564.99 1502.67 1560.08 1505.91 1554.19C1511.52 1543.98 1520.83 1531.86 1532.9 1519.81L1527.15 1513.64C1514.28 1524.83 1501.53 1533.26 1490.95 1538.14C1484.84 1540.96 1479.83 1542.42 1476.14 1542.75C1472.34 1543.09 1471.24 1542.16 1471.05 1541.95C1470.85 1541.74 1470 1540.58 1470.61 1536.81C1471.2 1533.16 1473 1528.26 1476.25 1522.36C1481.86 1512.15 1491.16 1500.03 1503.23 1487.98L1497.48 1481.81C1484.61 1493 1471.86 1501.43 1461.29 1506.31C1455.18 1509.13 1450.16 1510.59 1446.48 1510.92C1442.68 1511.26 1441.57 1510.33 1441.38 1510.12C1441.19 1509.92 1440.34 1508.75 1440.94 1504.98C1441.53 1501.33 1443.34 1496.43 1446.58 1490.53C1452.19 1480.32 1461.5 1468.2 1473.56 1456.15L1468.76 1451Z" fill="#DBFF29"/>
<path fill-rule="evenodd" clip-rule="evenodd" d="M1026.07 306.716L1095.42 309.255L1095.18 316.525L1043.38 314.629L1101.91 377.432L1041.33 375.214L1099.87 438.018L1030.52 435.479L1030.76 428.208L1082.57 430.105L1024.03 367.301L1084.61 369.52L1026.07 306.716Z" fill="#DBFF29"/>
<path fill-rule="evenodd" clip-rule="evenodd" d="M981.266 1635.96L1050.62 1638.5L1050.38 1645.77L998.571 1643.88L1057.11 1706.68L996.529 1704.46L1055.07 1767.27L985.712 1764.73L985.957 1757.46L1037.76 1759.35L979.224 1696.55L1039.8 1698.77L981.266 1635.96Z" fill="#DBFF29"/>
<path fill-rule="evenodd" clip-rule="evenodd" d="M310.484 1049.38L312.822 980.015L320.092 980.281L318.345 1032.09L380.967 973.724L378.925 1034.31L441.546 975.942L439.209 1045.3L431.939 1045.04L433.685 993.227L371.064 1051.6L373.106 991.009L310.484 1049.38Z" fill="#DBFF29"/>
<path fill-rule="evenodd" clip-rule="evenodd" d="M1639.6 1098.04L1641.94 1028.68L1649.2 1028.95L1647.46 1080.76L1710.08 1022.39L1708.04 1082.98L1770.66 1024.61L1768.32 1093.97L1761.05 1093.71L1762.8 1041.9L1700.18 1100.26L1702.22 1039.68L1639.6 1098.04Z" fill="#DBFF29"/>
</svg>
