<svg width="385" height="1219" viewBox="0 0 385 1219" fill="none" xmlns="http://www.w3.org/2000/svg">
<path d="M144.256 152.978C143.087 146.166 147.595 139.681 154.387 138.402V138.402C161.19 137.122 167.769 141.537 169.161 148.318L376.383 1157.64C380.144 1175.96 366.082 1193.08 347.375 1192.95V1192.95C333.102 1192.85 320.944 1182.53 318.531 1168.46L144.256 152.978Z" fill="#29CBFF"/>
<path fill-rule="evenodd" clip-rule="evenodd" d="M279.896 91.0352C312.815 264.722 281.05 416.525 208.947 430.096C136.843 443.666 51.7046 313.866 18.7849 140.179C13.5162 112.381 9.90438 85.1435 7.84968 58.9435L198.035 382.181L258.074 4.12902C266.723 31.3851 274.115 60.5334 279.896 91.0352Z" fill="#29CBFF"/>
<path d="M133.329 32.9694L256.752 346.268L133.079 369.544L133.329 32.9694Z" fill="#29CBFF"/>
</svg>
