<svg width="246" height="97" viewBox="0 0 246 97" fill="none" xmlns="http://www.w3.org/2000/svg">
<path fill-rule="evenodd" clip-rule="evenodd" d="M29.1879 0.0540529C25.8299 0.403009 23.4617 2.16902 22.4722 5.06213C22.0618 6.26156 21.924 7.26613 21.8714 9.44096C21.7946 12.6165 22.0771 15.1256 22.7218 16.9918C23.1327 18.1814 24.1309 20.0903 24.9475 21.2481C25.3527 21.8224 26.735 23.6238 28.0195 25.2511C32.1362 30.4667 32.6389 31.235 33.0697 32.9718C33.3861 34.2477 33.4857 37.4444 33.2561 38.957C33.0523 40.2988 32.7477 40.8556 32.0368 41.1853C31.1829 41.5811 30.0008 41.4079 29.4078 40.8C28.6813 40.055 28.5762 39.1728 28.5762 33.8135V29.8197H25.037H21.4977L21.5004 35.1497C21.5019 38.0814 21.5412 40.7735 21.5879 41.1325C21.7917 42.702 22.3186 44.1447 23.0851 45.233C24.1714 46.7751 26.2374 47.866 28.6636 48.1785C29.5557 48.2934 32.2877 48.2894 33.2515 48.1717C37.3799 47.668 39.9847 45.0142 40.7587 40.5234C41.0177 39.0211 41.1078 36.836 41.0012 34.6423C40.8485 31.4978 40.4809 29.8537 39.4847 27.8617C38.7886 26.4697 37.789 25.0504 34.8372 21.2626C30.8616 16.1612 30.2722 15.3126 29.7557 13.9462C29.3978 12.999 29.263 12.2092 29.2119 10.7582C29.1581 9.22802 29.2829 7.87745 29.5297 7.32191C29.8396 6.62426 30.6643 6.25146 31.6347 6.37016C32.4692 6.47223 32.9315 6.83493 33.1838 7.58575C33.3098 7.96065 33.3345 8.56597 33.3619 11.9586L33.3938 15.8963H36.84H40.2863L40.2858 11.3059C40.2853 6.42254 40.2411 5.73412 39.8454 4.45298C39.5276 3.42334 39.0907 2.68898 38.3676 1.96904C37.4173 1.02269 36.3268 0.503866 34.6036 0.178232C33.7646 0.0196793 30.2864 -0.0601191 29.1879 0.0540529ZM0 24.0328V47.6592H3.58295H7.16589V37.2601V26.861H9.61279H12.0597V37.2601V47.6592H15.5989H19.1382V24.0328V0.40649H15.5989H12.0597V9.84827V19.2901H9.61279H7.16589V9.84827V0.40649H3.58295H0V24.0328ZM43.3449 24.0328V47.6592H51.6469H59.9488V44.0912V40.5234H55.2298H50.5109V33.6487V26.774H54.0938H57.6767V23.2061V19.6382H54.0938H50.5109V13.4162V7.19416H55.0551H59.5993V3.80033V0.40649H51.4721H43.3449V24.0328ZM72.5328 0.503954C72.5328 0.557646 71.7277 7.06789 70.7435 14.9712C69.7593 22.8747 68.4622 33.3158 67.8608 38.1738C67.2595 43.0318 66.744 47.1533 66.715 47.3328L66.6624 47.6592H69.9472H73.232L73.2363 47.4633C73.2387 47.3556 73.4467 45.3683 73.6983 43.047L74.1557 38.8264L76.8246 38.8034L79.4935 38.7805L79.6944 40.6744C79.8047 41.7161 80.0182 43.704 80.1685 45.092L80.4419 47.6156L83.9591 47.6383C85.8936 47.6508 87.4763 47.6307 87.4763 47.5936C87.4763 47.5565 86.5948 40.8891 85.5173 32.7772C84.4397 24.6654 83.0339 14.0635 82.3932 9.21749L81.228 0.406663L76.8804 0.406576C73.7288 0.40649 72.5328 0.433292 72.5328 0.503954ZM88.525 24.0328V47.6592H92.1517H95.7784V37.0725V26.4857L97.1981 26.5399C98.923 26.6057 99.3917 26.7241 99.8266 27.2034C99.9971 27.3912 100.186 27.6945 100.247 27.8774C100.332 28.1322 100.37 30.2609 100.413 36.999C100.472 46.454 100.469 46.4021 100.93 47.3018L101.113 47.6592H104.738C107.692 47.6592 108.362 47.6378 108.362 47.5435C108.362 47.48 108.26 47.1787 108.136 46.874C107.627 45.6267 107.641 45.9289 107.581 35.389C107.52 24.5923 107.566 25.362 106.919 24.2069C106.483 23.4273 105.518 22.5748 104.703 22.2496L104.409 22.1321L104.835 21.917C105.453 21.6047 106.428 20.5859 106.809 19.8541C106.984 19.5181 107.218 18.9112 107.33 18.5053L107.532 17.7673V11.7628V5.75831L107.327 4.94509C106.868 3.13374 105.925 1.87924 104.517 1.20753C102.905 0.437904 102.527 0.40649 94.8849 0.40649H88.525V24.0328ZM108.799 3.80033V7.19416H111.814H114.829V27.4266V47.6592H118.369H121.908V27.4266V7.19416H124.922H127.937V3.80033V0.40649H118.369H108.799V3.80033ZM137.306 9.04336C136.715 13.7936 135.408 24.3178 134.402 32.4304C133.397 40.5429 132.554 47.2881 132.53 47.4198L132.486 47.6592H135.752H139.019L139.073 47.2457C139.102 47.0185 139.303 45.1681 139.519 43.134C139.734 41.0999 139.933 39.2887 139.961 39.1093L140.013 38.7829H142.67C144.132 38.7829 145.328 38.8123 145.328 38.8482C145.328 38.8842 145.545 40.8715 145.808 43.2646C146.073 45.6577 146.289 47.6253 146.29 47.6373C146.29 47.6494 147.883 47.6592 149.83 47.6592H153.371L153.326 47.4633C153.287 47.2924 151.858 36.5821 148.083 8.18098C147.529 4.00935 147.076 0.553469 147.076 0.501343C147.076 0.434162 145.807 0.40649 142.728 0.40649H138.381L137.306 9.04336ZM154.591 24.0328V47.6592H157.824H161.057L161.08 34.1303L161.102 20.6014L164.51 34.1295L167.918 47.6577L170.824 47.6584L173.729 47.6592V24.0328V0.40649H170.495H167.263V13.0826C167.263 20.0544 167.244 25.7404 167.222 25.7178C167.18 25.6766 164.79 15.879 162.415 6.01937C161.712 3.0998 161.116 0.642492 161.091 0.558777C161.05 0.41728 160.817 0.40649 157.819 0.40649H154.591V24.0328ZM176.701 24.0329V47.6685L183.014 47.6357C188.612 47.6067 189.403 47.5858 189.984 47.4524C193.336 46.6826 195.077 44.6173 195.681 40.6974C195.771 40.1093 195.795 36.6398 195.795 23.7717C195.795 8.47024 195.786 7.53581 195.635 6.67203C195.295 4.73128 194.682 3.42213 193.616 2.35908C192.787 1.53289 191.945 1.07656 190.551 0.69775L189.678 0.460182L183.19 0.428767L176.701 0.397265V24.0329ZM98.9753 6.97026C99.5535 7.14595 99.999 7.58062 100.205 8.16932C100.353 8.5945 100.366 8.98236 100.366 13.1986V17.7673L100.158 18.2894C99.9002 18.9348 99.3646 19.4743 98.7884 19.6698C98.4746 19.7765 98.0436 19.8123 97.0732 19.8123H95.7784V13.2727V6.73303L97.1545 6.78403C98.0087 6.81571 98.7002 6.88636 98.9753 6.97026ZM187.132 7.04753C187.689 7.30128 187.966 7.66434 188.207 8.45597C188.359 8.95225 188.367 9.71382 188.367 23.8588V38.7394L188.157 39.2616C188.036 39.5643 187.797 39.935 187.589 40.1439C187.076 40.6583 186.58 40.7844 185.074 40.7844H183.867V23.7587V6.73303L185.26 6.78124C186.503 6.82415 186.706 6.85303 187.132 7.04753ZM77.4669 20.3779C77.8273 23.6804 78.2529 27.5865 78.4126 29.0582L78.7027 31.7342H76.7975C75.7497 31.7342 74.8924 31.7153 74.8924 31.6922C74.8924 31.669 75.0683 30.0146 75.2832 28.0155C75.7863 23.3366 76.7256 14.4723 76.7345 14.3181C76.7551 13.9607 76.8697 14.9083 77.4669 20.3779ZM142.975 17.4328C143.844 25.3066 144.541 31.6611 144.541 31.696C144.541 31.717 143.676 31.7342 142.618 31.7342H140.695L140.742 31.4079C140.789 31.0956 141.818 21.4481 142.326 16.5741C142.458 15.2955 142.581 14.2639 142.6 14.2816C142.617 14.2992 142.787 15.7173 142.975 17.4328ZM47.5772 48.7891C45.3002 49.1081 43.4753 50.0062 42.3545 51.3591C41.4653 52.4326 40.9241 53.6694 40.5842 55.404C40.4484 56.0972 40.423 56.6385 40.4271 58.7543C40.4322 61.4201 40.5313 62.7567 40.8229 64.0981C41.2835 66.216 42.2875 68.3376 43.8126 70.4152C44.0586 70.7502 45.3221 72.3757 46.6206 74.0275C50.2929 78.6986 50.7744 79.3906 51.3033 80.7562C51.7522 81.9154 51.8278 82.4246 51.8811 84.6432C51.95 87.5108 51.7713 88.6947 51.1533 89.4667C50.825 89.877 50.4136 90.0643 49.7428 90.1094C48.391 90.2002 47.5047 89.4656 47.2741 88.0634C47.2284 87.7856 47.1908 85.5319 47.1905 83.055L47.1901 78.5517H43.6071H40.0242L40.0249 83.7512C40.0255 89.095 40.0627 89.8754 40.3775 91.1613C40.6027 92.0812 41.368 93.6696 41.8755 94.2702C42.9501 95.5421 44.3606 96.332 46.2883 96.7413C47.3974 96.9769 50.3438 97.0759 51.5926 96.919C54.8654 96.5088 56.9881 95.075 58.312 92.3803C59.3797 90.207 59.7506 87.3034 59.5226 82.9027C59.3079 78.7614 58.5046 76.7084 55.5898 72.8518C55.228 72.3732 54.063 70.8655 53.0007 69.5015C49.6623 65.2146 49.247 64.6367 48.6553 63.4535C48.015 62.1732 47.819 61.2736 47.7452 59.2765C47.661 56.9966 47.9305 55.8412 48.6584 55.3615C49.3423 54.9109 50.6667 54.9887 51.2033 55.5109C51.8673 56.1574 51.9091 56.4795 51.9091 60.9459V64.6282H55.4128H58.9164L58.8746 59.8639C58.8301 54.7984 58.7996 54.3945 58.3647 53.119C57.7454 51.3027 56.5238 49.9813 54.8884 49.3591C53.6414 48.8847 52.8551 48.7775 50.3797 48.7448C49.1301 48.7283 47.869 48.7482 47.5772 48.7891ZM78.9243 48.8026C76.7534 49.0287 75.0708 49.8056 73.7826 51.1768C72.9426 52.0706 72.4382 52.9318 72.0067 54.2084C71.3099 56.2698 71.3599 54.8906 71.3284 72.8954C71.3087 84.1545 71.329 89.2016 71.3962 89.7905C71.7845 93.1909 73.6184 95.8156 76.2032 96.6706C76.6693 96.8248 77.0333 96.8647 78.2312 96.8933C79.9265 96.9333 80.2516 96.8681 81.4672 96.2443C82.847 95.5363 84.3937 93.858 85.1055 92.2966L85.3569 91.7454L85.4932 92.219C85.6136 92.6366 86.2954 95.1787 86.5247 96.0648L86.6092 96.3911H88.6596H90.7098V82.0326V67.674H85.6412H80.5727V71.2854V74.8969H82.1894H83.806V81.1533C83.806 87.1584 83.799 87.4322 83.6317 87.9716C83.2104 89.33 81.8335 90.0526 80.435 89.6494C79.734 89.4471 79.2697 88.9678 78.9879 88.1548L78.7812 87.5585V72.5037V57.449L78.9771 56.9704C79.3508 56.0572 80.025 55.5835 80.9558 55.58C82.2088 55.5752 82.9207 56.153 83.1835 57.3881C83.2458 57.6803 83.2817 58.995 83.2817 60.9776V64.1062H86.821H90.3603L90.3593 60.7341C90.3578 55.6195 90.1244 54.0755 89.056 52.113C88.4476 50.9957 87.164 49.8898 85.9066 49.3995C84.3808 48.8046 81.3733 48.5475 78.9243 48.8026ZM128.593 48.7968C124.457 49.3517 122.088 51.7622 121.56 55.9521C121.444 56.8781 121.445 61.0035 121.563 62.0863C121.909 65.2917 122.774 67.5247 124.698 70.1818C125.068 70.6931 126.313 72.3058 127.465 73.7655C130.913 78.1359 131.514 78.9674 132.096 80.1728C132.755 81.535 132.918 82.56 132.916 85.2958C132.912 88.0059 132.714 89.0081 132.061 89.6307C131.239 90.4153 129.462 90.2405 128.821 89.3117C128.253 88.4911 128.252 88.4769 128.22 83.2726L128.191 78.5517H124.613H121.034L121.035 83.6208C121.035 89.676 121.095 90.4025 121.739 92.1631C122.705 94.8081 124.938 96.4485 128.139 96.8658C129.428 97.0342 131.803 97.0371 132.964 96.8731C137.167 96.2778 139.614 93.6577 140.401 88.9072C140.584 87.8067 140.666 83.3076 140.53 81.9143C140.196 78.503 139.244 76.2811 136.651 72.8615C136.211 72.2818 134.901 70.588 133.74 69.0974C130.588 65.0547 129.911 64.0762 129.429 62.8738C128.889 61.5299 128.856 61.2988 128.856 58.9719C128.855 56.54 128.943 56.0585 129.481 55.538C130.165 54.8764 131.595 54.8923 132.307 55.5691C132.899 56.1314 132.918 56.2926 132.918 60.7282V64.6282H136.414H139.91L139.908 60.2989C139.907 57.9179 139.867 55.5976 139.819 55.143C139.447 51.6136 137.773 49.6596 134.52 48.9601C133.802 48.8055 133.297 48.7704 131.433 48.745C130.208 48.7283 128.929 48.7516 128.593 48.7968ZM149.392 48.831C145.794 49.3993 143.675 51.4601 142.767 55.2728C142.581 56.0559 142.581 56.0727 142.552 72.1992C142.526 86.9179 142.537 88.4337 142.669 89.3858C142.922 91.1875 143.54 92.8924 144.328 93.9619C144.763 94.5514 145.76 95.4591 146.348 95.7996C147.808 96.6469 149.505 97.0002 152.113 97.0002C154.344 97.0002 155.819 96.7353 157.106 96.1034C159.345 95.0043 160.71 92.8619 161.242 89.6116C161.393 88.6874 161.407 88.0669 161.407 82.2284V75.854H157.916H154.423L154.398 81.9673C154.373 87.9572 154.369 88.0896 154.189 88.5271C153.762 89.5603 153.159 89.9759 152.084 89.9788C151.276 89.981 150.751 89.7313 150.353 89.1565C149.804 88.3638 149.829 89.1264 149.829 72.5472C149.829 58.1398 149.835 57.4253 149.989 56.9308C150.182 56.3085 150.634 55.8152 151.141 55.675C151.333 55.6223 151.766 55.5788 152.106 55.5786C152.907 55.5779 153.556 55.8809 153.918 56.4239C154.379 57.1161 154.413 57.5394 154.414 62.4746L154.416 66.9779H157.912H161.407L161.406 61.7784C161.404 56.2946 161.365 55.6018 160.975 54.0987C160.511 52.3116 159.347 50.7106 157.88 49.8434C157.148 49.4104 155.826 48.9929 154.697 48.8384C153.495 48.6739 150.414 48.6695 149.392 48.831ZM193.566 48.7639C189.466 49.2012 186.981 51.412 186.054 55.4466C185.65 57.2091 185.658 56.8581 185.658 72.7648C185.658 86.9779 185.667 87.8755 185.819 88.8202C186.323 91.9492 187.362 93.9809 189.135 95.3088C190.852 96.5942 192.815 97.0623 196.114 96.9755C199.13 96.8958 200.692 96.421 202.273 95.1024C203.797 93.8314 204.736 91.9074 205.21 89.0813L205.408 87.9065V72.7648C205.408 58.7145 205.396 57.5548 205.254 56.6769C204.647 52.9493 203.381 50.8936 200.951 49.6847C200.042 49.2324 199.004 48.9495 197.676 48.7914C196.985 48.7092 194.251 48.6909 193.566 48.7639ZM214.977 48.8266C212.604 49.1905 211.067 49.979 209.782 51.4905C208.876 52.5562 208.271 53.9155 207.835 55.8666L207.598 56.9269L207.568 72.1121C207.547 82.8165 207.567 87.5798 207.636 88.2546C207.812 89.9895 208.156 91.2568 208.817 92.6057C209.318 93.6267 209.833 94.2978 210.67 95.0213C212.28 96.4127 214.31 97.0022 217.479 96.9987C220.971 96.9948 223.039 96.3051 224.687 94.5941C226.143 93.083 226.93 90.9626 227.217 87.7813C227.276 87.1186 227.297 81.7417 227.279 72.0251L227.25 57.275L227.058 56.2308C226.612 53.8082 225.885 52.2044 224.68 50.9855C223.671 49.965 222.215 49.2488 220.476 48.9169C219.474 48.7255 216.006 48.6685 214.977 48.8266ZM0 72.7648V96.3911L5.52735 96.3897C8.56744 96.389 11.5266 96.3494 12.1034 96.3019C15.9635 95.9838 18.0943 94.0418 18.8933 90.1136L19.0945 89.1248V72.6342C19.0945 56.8783 19.0872 56.1049 18.9307 55.2735C18.251 51.6635 16.4738 49.8411 13.0751 49.2691C12.4358 49.1615 11.2146 49.1385 6.14948 49.1385H0V72.7648ZM21.8472 72.7648V96.3911H30.1929H38.5385V92.7797V89.1683H33.7758H29.0132V82.3371V75.5059H32.5961H36.179V71.9381V68.3702H32.5961H29.0132V62.1481V55.9262H33.6011H38.189V52.5323V49.1385H30.0181H21.8472V72.7648ZM61.5219 72.7648V96.3911H65.1485H68.7751V72.7648V49.1385H65.1485H61.5219V72.7648ZM93.1566 72.7648V96.3911H96.3898H99.6232L99.6455 82.8962L99.6668 69.4013L103.068 82.8962L106.469 96.3911H109.382H112.295V72.7648V49.1385H109.013H105.732L105.782 61.8218C105.816 70.3921 105.803 74.4487 105.743 74.3312C105.661 74.1689 104.08 67.7023 100.94 54.687C100.216 51.6842 99.6232 49.2073 99.6232 49.1829C99.6232 49.1585 98.1685 49.1385 96.3901 49.1385H93.1566V72.7648ZM163.767 72.7648V96.3911H167.35H170.933V85.992V75.593H173.336H175.739V85.992V96.3911H179.322H182.905V72.7648V49.1385H179.322H175.739V58.5803V68.0221H173.336H170.933V58.5803V49.1385H167.35H163.767V72.7648ZM230.008 72.7648V96.3911H238.004H246V92.7362V89.0813H241.587H237.174V69.1099V49.1385H233.591H230.008V72.7648ZM10.2682 55.6684C10.7608 55.812 11.3161 56.4113 11.4921 56.9893C11.5692 57.2422 11.6684 57.8993 11.7127 58.4497C11.8227 59.8152 11.8203 85.3701 11.7101 86.6098C11.5713 88.1716 11.2486 88.8225 10.4099 89.2326C9.9477 89.4587 9.83748 89.4746 8.54227 89.5023L7.16589 89.5317V72.499V55.4663L8.54227 55.5164C9.29924 55.5439 10.0759 55.6124 10.2682 55.6684ZM196.376 55.6791C196.804 55.807 197.37 56.2859 197.579 56.6968C198.041 57.6105 198.023 56.9776 198.023 72.7326C198.023 82.7817 197.994 87.4665 197.929 87.8164C197.711 88.9889 197.193 89.6588 196.304 89.9161C195.174 90.2434 193.961 89.7606 193.46 88.7826C192.981 87.8515 193.008 88.7068 192.976 73.548C192.958 64.8937 192.98 59.1538 193.033 58.5337C193.145 57.2204 193.35 56.6671 193.914 56.1619C194.148 55.9525 194.471 55.7395 194.631 55.6885C195.029 55.5616 195.965 55.5566 196.376 55.6791ZM218.559 55.82C219.005 56.0414 219.454 56.5856 219.652 57.1422C219.95 57.9862 219.968 58.9435 219.94 73.4174L219.914 87.7325L219.711 88.2936C219.492 88.8978 219.18 89.3857 218.857 89.6284C218.745 89.7122 218.4 89.8469 218.089 89.9282C216.737 90.2813 215.509 89.5821 215.083 88.2166C214.944 87.7662 214.933 86.6831 214.933 72.6778V57.6231L215.142 57.1009C215.395 56.464 216.021 55.818 216.516 55.6814C217.081 55.5255 218.108 55.5951 218.559 55.82Z" fill="white"/>
</svg>
