<svg width="478" height="346" viewBox="0 0 478 346" fill="none" xmlns="http://www.w3.org/2000/svg">
<rect x="33.0273" y="119.256" width="12.742" height="29.7627" rx="6.37101" transform="rotate(105 33.0273 119.256)" fill="#DBFF29"/>
<rect x="131.156" y="170" width="12.742" height="29.7627" rx="6.37101" transform="rotate(60 131.156 170)" fill="#DBFF29"/>
<rect x="477.48" y="297.288" width="12.742" height="29.7627" rx="6.37101" transform="rotate(135 477.48 297.288)" fill="#DBFF29"/>
<rect x="397.156" y="159" width="12.742" height="29.7627" rx="6.37101" transform="rotate(60 397.156 159)" fill="#DBFF29"/>
<rect x="329.727" y="74" width="12.742" height="29.7627" rx="6.37101" transform="rotate(75 329.727 74)" fill="#DBFF29"/>
<rect x="274.102" y="206.972" width="12.742" height="29.7627" rx="6.37101" transform="rotate(150 274.102 206.972)" fill="#DBFF29"/>
<path fill-rule="evenodd" clip-rule="evenodd" d="M189.538 26.1474C176.113 49.2922 145.351 56.571 120.714 42.4439C145.24 56.7008 154.325 86.9307 141.056 110.12C154.501 87.0426 185.207 79.7923 209.812 93.8854L209.813 93.8849C185.278 79.6066 176.211 49.339 189.538 26.1474ZM120.428 42.2786C120.42 42.2738 120.411 42.2691 120.403 42.2644L120.403 42.2645C120.411 42.2692 120.42 42.2739 120.428 42.2786ZM189.633 25.9825C189.648 25.9574 189.662 25.9322 189.677 25.9071L189.677 25.9068C189.662 25.9321 189.648 25.9573 189.633 25.9825Z" fill="#29CBFF"/>
<path fill-rule="evenodd" clip-rule="evenodd" d="M354.913 281.506C350.733 296.977 333.546 305.818 316.463 301.293C333.501 305.91 343.961 322.13 339.882 337.604C344.085 322.169 361.243 313.353 378.302 317.863L378.302 317.863C361.255 313.234 350.799 296.99 354.913 281.506ZM316.264 301.24C316.258 301.238 316.253 301.237 316.247 301.235L316.247 301.235C316.253 301.237 316.258 301.238 316.264 301.24ZM354.943 281.395C354.947 281.379 354.952 281.362 354.956 281.345L354.956 281.345C354.952 281.362 354.947 281.379 354.943 281.395Z" fill="#29CBFF"/>
</svg>
