<svg width="111" height="110" viewBox="0 0 111 110" fill="none" xmlns="http://www.w3.org/2000/svg">
<path fill-rule="evenodd" clip-rule="evenodd" d="M81.6462 28.7521C67.1025 43.2359 42.6433 42.3016 26.9211 26.6705C42.5355 42.3756 43.4847 66.7989 29.05 81.3485C43.5948 66.9188 68.0066 67.8627 83.7122 83.4622L83.7125 83.4618C68.0961 67.7391 67.1672 43.2911 81.6462 28.7521ZM26.7385 26.4879C26.7333 26.4827 26.7282 26.4775 26.723 26.4723L26.7229 26.4724C26.7281 26.4776 26.7333 26.4827 26.7385 26.4879ZM81.7495 28.6489C81.7653 28.6331 81.7811 28.6174 81.797 28.6017L81.7967 28.6014C81.781 28.6172 81.7652 28.6331 81.7495 28.6489Z" fill="#29CBFF"/>
</svg>
