<svg width="98" height="93" viewBox="0 0 98 93" fill="none" xmlns="http://www.w3.org/2000/svg">
<path fill-rule="evenodd" clip-rule="evenodd" d="M59.0582 10.6746C53.7048 30.4898 32.0555 41.9103 10.6241 36.2344C31.9991 42.0283 45.0328 62.7049 39.8068 82.5225C45.188 62.7536 66.8013 51.3652 88.2024 57.0219L88.2026 57.0214C66.817 51.2134 53.7885 30.5053 59.0582 10.6746ZM10.3747 36.1676C10.3676 36.1657 10.3605 36.1638 10.3534 36.1618L10.3534 36.162C10.3605 36.1638 10.3676 36.1657 10.3747 36.1676ZM59.096 10.5336C59.1019 10.512 59.1077 10.4905 59.1136 10.4689L59.1132 10.4688C59.1075 10.4904 59.1018 10.512 59.096 10.5336Z" fill="#29CBFF"/>
</svg>
