<svg width="65" height="59" viewBox="0 0 65 59" fill="none" xmlns="http://www.w3.org/2000/svg">
<path fill-rule="evenodd" clip-rule="evenodd" d="M32.4259 0.166295C32.3921 16.1926 18.0792 29.1809 0.406956 29.2312C18.0601 29.2813 32.3613 42.2415 32.426 58.244C32.4909 42.247 46.7826 29.2901 64.4276 29.2315V29.2311C46.7633 29.1724 32.4597 16.1874 32.4259 0.166295ZM0.201126 29.2312C0.195281 29.2312 0.189437 29.2312 0.183594 29.2311V29.2313C0.189437 29.2312 0.195281 29.2312 0.201126 29.2312ZM32.4259 0.0523001C32.426 0.0348632 32.426 0.0174298 32.4261 0L32.4258 0C32.4258 0.0174298 32.4259 0.0348632 32.4259 0.0523001Z" fill="#29CBFF"/>
</svg>
