<svg width="266" height="270" viewBox="0 0 266 270" fill="none" xmlns="http://www.w3.org/2000/svg">
<mask id="mask0_360_107" style="mask-type:alpha" maskUnits="userSpaceOnUse" x="28" y="28" width="210" height="213">
<path d="M232.008 169.746C250.309 114.583 220.7 54.2261 165.875 34.9355C111.049 15.645 51.7673 44.7254 33.4658 99.8883C15.1644 155.051 44.7733 215.408 99.5991 234.698C154.425 253.989 213.706 224.909 232.008 169.746Z" fill="#E7E7E7"/>
</mask>
<g mask="url(#mask0_360_107)">
<path d="M74.2695 -43.1692L-53.8395 152.607L204.826 327.704L332.935 131.927L74.2695 -43.1692Z" fill="#29CBFF"/>
<path d="M180.364 137.68C191.569 145.265 206.604 142.316 213.947 131.095C221.29 119.873 218.16 104.628 206.955 97.0434C195.751 89.4588 180.715 92.4072 173.372 103.629C166.029 114.85 169.16 130.096 180.364 137.68Z" fill="#FF42CA"/>
<path d="M77.9111 171.238C89.1156 178.822 104.151 175.874 111.494 164.652C118.837 153.431 115.707 138.185 104.502 130.601C93.2979 123.016 78.2622 125.965 70.9192 137.186C63.5762 148.408 66.7066 163.653 77.9111 171.238Z" fill="#FF42CA"/>
<path d="M143.497 171.661C149.099 175.453 156.617 173.979 160.288 168.368C163.96 162.757 162.394 155.135 156.792 151.342C151.19 147.55 143.672 149.024 140.001 154.635C136.329 160.246 137.894 167.868 143.497 171.661Z" fill="#FF42CA"/>
<path d="M140.876 261.194C156.691 271.9 177.913 267.738 188.277 251.899C198.641 236.061 194.223 214.542 178.408 203.837C162.594 193.132 141.372 197.293 131.007 213.132C120.643 228.971 125.061 250.489 140.876 261.194Z" fill="#FF42CA"/>
<path d="M103.696 68.6749C119.511 79.3802 140.733 75.2188 151.097 59.38C161.462 43.5412 157.043 22.023 141.229 11.3177C125.414 0.612441 104.192 4.77393 93.8275 20.6127C83.4632 36.4514 87.8816 57.9696 103.696 68.6749Z" fill="#FF42CA"/>
<path d="M21.5244 115.97C37.339 126.676 58.5613 122.514 68.9256 106.675C79.2899 90.8367 74.8715 69.3185 59.0568 58.6132C43.2422 47.9079 22.0199 52.0693 11.6556 67.9081C1.29133 83.7468 5.70971 105.265 21.5244 115.97Z" fill="#FF42CA"/>
<path d="M220.278 218.133C236.093 228.838 257.315 224.677 267.679 208.838C278.044 192.999 273.625 171.481 257.811 160.776C241.996 150.07 220.774 154.232 210.41 170.071C200.045 185.909 204.464 207.428 220.278 218.133Z" fill="#FF42CA"/>
<path d="M121.434 127.096C127.036 130.888 134.554 129.414 138.226 123.803C141.897 118.193 140.332 110.57 134.73 106.778C129.127 102.985 121.61 104.46 117.938 110.07C114.267 115.681 115.832 123.304 121.434 127.096Z" fill="#FF42CA"/>
<path d="M43.3906 -45.6228L310.119 48.2258L221.082 316.594L-45.646 222.746L43.3906 -45.6228Z" fill="#FF42CA"/>
<path d="M141.603 101.333C135.783 118.878 116.928 128.127 99.4904 121.991C82.0529 115.856 72.6357 96.6594 78.4566 79.1147C84.2774 61.57 103.132 52.3209 120.569 58.4563C138.007 64.5917 147.424 83.7883 141.603 101.333Z" fill="#FF42CA"/>
<path d="M96.7133 162.979C92.3533 176.12 78.2305 183.048 65.1692 178.453C52.1079 173.857 45.0541 159.478 49.4141 146.336C53.7741 133.195 67.8969 126.267 80.9582 130.863C94.0195 135.458 101.073 149.837 96.7133 162.979Z" fill="#FF42CA"/>
<path d="M216.404 153.449C210.673 170.723 192.11 179.829 174.942 173.789C157.773 167.748 148.502 148.848 154.233 131.574C159.964 114.3 178.527 105.194 195.695 111.235C212.863 117.275 222.135 136.175 216.404 153.449Z" fill="#FF42CA"/>
<path d="M155.394 213.852C152.607 222.252 143.58 226.68 135.231 223.742C126.883 220.805 122.374 211.614 125.161 203.215C127.948 194.815 136.975 190.387 145.323 193.324C153.672 196.261 158.18 205.452 155.394 213.852Z" fill="#FF42CA"/>
<path d="M138.839 165.158C137.041 170.578 131.217 173.434 125.831 171.539C120.445 169.644 117.536 163.715 119.334 158.296C121.132 152.876 126.956 150.019 132.342 151.915C137.728 153.81 140.637 159.739 138.839 165.158Z" fill="#FF42CA"/>
<path d="M190.179 79.4708C187.392 87.8706 178.365 92.2987 170.017 89.3613C161.668 86.4239 157.159 77.2332 159.946 68.8334C162.733 60.4336 171.76 56.0055 180.108 58.9429C188.457 61.8803 192.965 71.071 190.179 79.4708Z" fill="#FF42CA"/>
<path d="M22.0039 -104.032L358.673 14.4257L246.457 352.661L-90.2124 234.203L22.0039 -104.032Z" fill="#FF42CA"/>
<path fill-rule="evenodd" clip-rule="evenodd" d="M54.0714 69.0243C58.8982 72.8346 66.2904 68.1187 72.2286 69.7159C79.0013 71.5375 87.0834 73.2041 90.9818 78.952C94.8556 84.6637 90.3632 92.3691 92.0535 98.9468C93.8261 105.844 102.568 111.469 101.097 118.312C99.5988 125.275 87.8895 125.67 84.9182 132.12C81.4158 139.724 88.3465 150.506 83.213 157.135C78.6335 163.05 68.1977 166.224 61.1269 162.846C51.2143 158.111 49.6733 144.366 41.4169 137.171C38.3684 134.514 32.7677 137.789 29.5514 135.329C26.1624 132.737 27.9277 126.208 24.2464 124.039C18.5573 120.686 8.10689 126.518 4.95223 120.833C2.0342 115.574 13.6487 112.117 14.4117 106.316C15.0302 101.613 10.6273 97.5132 8.59983 93.0986C3.98044 83.0401 -12.5396 71.3169 -5.35784 63.2687C1.72707 55.3291 16.5815 78.5485 26.0959 73.4919C36.2738 68.0827 24.569 43.0655 36.1299 41.2193C47.0695 39.4723 45.2445 62.0563 54.0714 69.0243Z" fill="#DBFF29"/>
<path fill-rule="evenodd" clip-rule="evenodd" d="M190.428 50.4672C202.123 45.8498 206.975 29.6273 219.441 27.8086C231.753 26.0124 244.357 32.947 253.189 41.3108C262.089 49.7388 264.933 62.1445 268.046 73.8351C271.182 85.6124 279.028 99.8359 271.376 109.608C262.795 120.566 241.062 111.007 231.189 120.901C220.73 131.383 230.521 152.678 219.016 162.078C208.563 170.619 187.205 173.971 178.867 163.651C167.684 149.809 189.892 125.107 178.251 111.622C167.948 99.6882 135.998 122.655 130.763 107.93C125.76 93.8587 160.538 94.9912 167.591 81.6401C172.631 72.1001 154.463 59.6825 160.872 50.9337C166.69 42.9923 181.117 54.1436 190.428 50.4672Z" fill="#DBFF29"/>
<path fill-rule="evenodd" clip-rule="evenodd" d="M69.9824 245.934C67.0695 235.039 84.6484 227.131 83.8306 215.904C82.83 202.167 58.0986 191.186 65.1442 179.515C72.373 167.54 95.151 186.483 106.477 178.388C117.914 170.215 108.004 143.042 121.531 139.216C134.112 135.658 139.555 158.274 150.329 165.985C157.336 171 165.891 172.481 173.527 176.429C183.206 181.433 199.876 181.655 201.561 192.473C203.49 204.851 182.039 210.225 180.726 222.638C179.516 234.068 198.465 242.761 195.083 253.706C192.045 263.537 177.293 263.282 167.4 265.767C159.463 267.761 151.329 266.637 143.126 266.759C135.917 266.866 128.956 267.044 121.76 266.445C113.148 265.729 104.463 266.07 96.3876 262.871C86.5751 258.984 72.729 256.207 69.9824 245.934Z" fill="#DBFF29"/>
<path fill-rule="evenodd" clip-rule="evenodd" d="M107.115 75.0437C105.446 70.6813 97.9139 69.8139 97.6105 65.1633C97.322 60.7408 103.615 59.0333 105.823 55.2354C108.624 50.4177 107.215 42.5759 112.18 40.1044C116.951 37.7292 122.837 41.5396 127.325 44.531C131.081 47.0348 132.184 51.8741 135.072 55.363C137.773 58.627 141.874 60.5011 143.706 64.3251C145.892 68.8846 149.271 74.8674 146.365 78.9282C143.228 83.3114 135.91 80.2513 130.908 82.2085C127.46 83.5576 125.453 87.1312 121.998 88.4622C117.341 90.2565 111.329 94.5869 107.571 91.199C103.485 87.515 109.085 80.193 107.115 75.0437Z" fill="#DBFF29"/>
</g>
</svg>
