<svg width="1283" height="1281" viewBox="0 0 1283 1281" fill="none" xmlns="http://www.w3.org/2000/svg">
<path d="M725.081 1190.87C421.081 1236.85 137.133 1027.71 90.8648 723.758C44.597 419.803 253.53 136.127 557.53 90.1509C861.53 44.1744 1145.48 253.307 1191.75 557.262C1238.01 861.217 1029.08 1144.89 725.081 1190.87Z" stroke="white" stroke-width="12"/>
<ellipse rx="60.4617" ry="60.6487" transform="matrix(0.150486 0.988612 -0.988756 0.149538 1168.07 796.842)" fill="#29CBFF"/>
<path fill-rule="evenodd" clip-rule="evenodd" d="M201.616 224.406C201.54 263.544 169.749 295.262 130.496 295.385C169.707 295.507 201.472 327.157 201.616 366.236C201.76 327.17 233.504 295.529 272.696 295.385V295.385C233.461 295.241 201.691 263.531 201.616 224.406ZM130.039 295.385C130.026 295.385 130.013 295.385 130 295.385V295.385C130.013 295.385 130.026 295.385 130.039 295.385ZM201.616 224.128C201.616 224.085 201.616 224.043 201.616 224H201.615C201.615 224.043 201.615 224.085 201.616 224.128Z" fill="#FF42CA"/>
</svg>
