<svg width="1570" height="1569" viewBox="0 0 1570 1569" fill="none" xmlns="http://www.w3.org/2000/svg">
<path d="M887.521 1459.08C514.636 1515.48 166.347 1258.95 109.594 886.122C52.8422 513.291 309.118 165.335 682.003 108.94C1054.89 52.5457 1403.18 309.068 1459.93 681.9C1516.68 1054.73 1260.41 1402.69 887.521 1459.08Z" stroke="white" stroke-width="12"/>
<ellipse rx="77.0576" ry="77.2959" transform="matrix(0.150486 0.988612 -0.988756 0.149538 98.6302 852.239)" fill="#29CBFF"/>
<ellipse rx="58.8742" ry="59.0562" transform="matrix(0.150486 0.988612 -0.988756 0.149538 555.733 134.623)" fill="#29CBFF"/>
<ellipse rx="51.2759" ry="51.4345" transform="matrix(0.150486 0.988612 -0.988756 0.149538 541.841 1415.18)" fill="#FF42CA"/>
<path fill-rule="evenodd" clip-rule="evenodd" d="M1123.5 1263.71C1123.39 1322.59 1075.71 1370.32 1016.84 1370.5C1075.65 1370.69 1123.28 1418.3 1123.5 1477.1C1123.71 1418.32 1171.32 1370.72 1230.1 1370.5V1370.5C1171.26 1370.28 1123.61 1322.58 1123.5 1263.71ZM1016.16 1370.5C1016.14 1370.5 1016.12 1370.5 1016.1 1370.5V1370.5C1016.12 1370.5 1016.14 1370.5 1016.16 1370.5ZM1123.5 1263.29C1123.5 1263.23 1123.5 1263.16 1123.5 1263.1H1123.5C1123.5 1263.16 1123.5 1263.23 1123.5 1263.29Z" fill="white"/>
<path fill-rule="evenodd" clip-rule="evenodd" d="M1215.45 153.629C1215.35 204.645 1173.91 245.991 1122.74 246.151C1173.86 246.31 1215.26 287.566 1215.45 338.507C1215.64 287.584 1257.02 246.338 1308.11 246.152V246.151C1256.96 245.964 1215.55 204.629 1215.45 153.629ZM1122.15 246.151C1122.13 246.151 1122.11 246.151 1122.1 246.151V246.151C1122.11 246.151 1122.13 246.151 1122.15 246.151ZM1215.45 153.266C1215.45 153.211 1215.45 153.155 1215.45 153.1H1215.45C1215.45 153.155 1215.45 153.211 1215.45 153.266Z" fill="white"/>
</svg>
