<svg width="16" height="23" viewBox="0 0 16 23" fill="none" xmlns="http://www.w3.org/2000/svg">
<path d="M7.03341 21.3726L1.21475 18.0132L0.96975 17.8717L2.12151 15.8768C1.33596 14.4085 1.80943 11.891 2.14436 10.8158L2.35884 5.21072C3.28811 4.1104 4.26736 4.75761 4.64083 5.21876L4.8722 8.70786L9.42606 0.820346C10.8789 0.284208 11.481 1.43386 11.6004 2.0757L9.669 5.42099C11.1014 5.42955 11.4393 6.45673 11.4292 6.96924C12.7881 6.93537 13.2012 7.97862 13.2378 8.50449C14.2511 8.10738 14.9667 9.09342 15.1978 9.63608L12.469 14.3624C11.0421 17.7534 9.10852 19.0514 7.86622 19.9301L7.03341 21.3726Z" fill="#DBFF29"/>
<path d="M13.2378 8.50449C14.2511 8.10739 14.9667 9.09342 15.1978 9.63608L12.469 14.3624C11.0421 17.7534 9.10852 19.0514 7.86622 19.9301L7.03341 21.3726L1.21475 18.0132L0.96975 17.8717L2.12151 15.8768C1.33596 14.4085 1.80943 11.891 2.14436 10.8158L2.35884 5.21072C3.28811 4.1104 4.26736 4.75761 4.64083 5.21876L4.8722 8.70786M13.2378 8.50449L11.3773 11.727M13.2378 8.50449C13.2012 7.97862 12.7881 6.93537 11.4292 6.96924M11.4292 6.96924L9.35609 10.5601M11.4292 6.96924C11.4393 6.45673 11.1014 5.42955 9.669 5.42099M9.669 5.42099L7.36549 9.41079M9.669 5.42099L11.6004 2.0757C11.481 1.43386 10.8789 0.284208 9.42606 0.820346L4.8722 8.70786M3.7736 10.6107L4.8722 8.70786" stroke="black" stroke-linecap="round"/>
</svg>
