<svg width="214" height="214" viewBox="0 0 214 214" fill="none" xmlns="http://www.w3.org/2000/svg">
<path fill-rule="evenodd" clip-rule="evenodd" d="M107.401 0.611C107.288 59.495 59.6111 107.217 0.744033 107.401C59.5476 107.585 107.186 155.204 107.401 214C107.617 155.224 155.224 107.618 214 107.403V107.401C155.159 107.185 107.513 59.4757 107.401 0.611ZM0.0583998 107.401C0.038932 107.401 0.0194654 107.401 0 107.401L0 107.401C0.0194654 107.401 0.038932 107.401 0.0583998 107.401ZM107.401 0.192161C107.401 0.128094 107.401 0.0640404 107.401 0L107.4 0C107.401 0.0640405 107.401 0.128094 107.401 0.192161Z" fill="white"/>
</svg>
