<svg width="1931" height="1933" viewBox="0 0 1931 1933" fill="none" xmlns="http://www.w3.org/2000/svg">
<path d="M1252.72 289.568L963.478 808.865L685.901 278.221L853.764 855.354L287.953 675.37L808.197 962.697L277.702 1239.84L852.726 1069.77L675.093 1642.01L963.25 1116.97L1244.04 1652.51L1074.05 1076.23L1644.12 1254.51L1119.62 968.885L1652.24 690.888L1074 856.064L1252.72 289.568Z" fill="#6E4AFF"/>
<path d="M1252.72 289.568L963.478 808.865L685.901 278.221L853.764 855.354L287.953 675.37L808.197 962.697L277.702 1239.84L852.726 1069.77L675.093 1642.01L963.25 1116.97L1244.04 1652.51L1074.05 1076.23L1644.12 1254.51L1119.62 968.885L1652.24 690.888L1074 856.064L1252.72 289.568Z" fill="#6E4AFF"/>
</svg>
