<svg width="267" height="238" viewBox="0 0 267 238" fill="none" xmlns="http://www.w3.org/2000/svg">
<ellipse cx="132.355" cy="117.671" rx="65.6663" ry="63.6667" transform="rotate(-12.5704 132.355 117.671)" fill="#6E4AFF"/>
<line x1="137.807" y1="134.941" x2="153.732" y2="206.363" stroke="#6E4AFF" stroke-width="12" stroke-linecap="round"/>
<line x1="6" y1="-6" x2="81.2497" y2="-6" transform="matrix(-0.175962 0.984397 -0.998224 -0.0595795 85.3789 139.496)" stroke="#6E4AFF" stroke-width="12" stroke-linecap="round"/>
<line x1="6" y1="-6" x2="81.2497" y2="-6" transform="matrix(0.577508 0.816385 0.878346 -0.478025 183.785 115.902)" stroke="#6E4AFF" stroke-width="12" stroke-linecap="round"/>
<ellipse cx="140.184" cy="150.744" rx="114.916" ry="29.6824" transform="rotate(-12.5704 140.184 150.744)" fill="#6E4AFF"/>
<line y1="-6" x2="85.3575" y2="-6" transform="matrix(0.46977 0.882789 -0.889947 0.456063 70.0156 44.2148)" stroke="#6E4AFF" stroke-width="12"/>
<ellipse rx="8.41319" ry="8.19087" transform="matrix(0.889947 -0.456063 0.46977 0.882789 76.55 44.2493)" fill="#6E4AFF"/>
<line y1="-6" x2="85.3575" y2="-6" transform="matrix(-0.0502185 0.998738 -0.999395 -0.0347689 146.562 25.9238)" stroke="#6E4AFF" stroke-width="12"/>
<ellipse rx="8.41319" ry="8.19087" transform="matrix(0.999395 0.0347689 -0.0502185 0.998738 152.165 29.1352)" fill="#6E4AFF"/>
<ellipse cx="142.592" cy="158.75" rx="9.04145" ry="8.76612" transform="rotate(-12.5704 142.592 158.75)" fill="white"/>
<ellipse cx="98.3318" cy="164.915" rx="7.98645" ry="7.74325" transform="rotate(-12.5704 98.3318 164.915)" fill="white"/>
<ellipse cx="186.672" cy="145.214" rx="7.98645" ry="7.74325" transform="rotate(-12.5704 186.672 145.214)" fill="white"/>
<ellipse cx="59.104" cy="168.376" rx="6.21168" ry="6.02252" transform="rotate(-12.5704 59.104 168.376)" fill="white"/>
<ellipse cx="221.069" cy="132.261" rx="6.21168" ry="6.02252" transform="rotate(-12.5704 221.069 132.261)" fill="white"/>
</svg>
