<svg width="375" height="426" viewBox="0 0 375 426" fill="none" xmlns="http://www.w3.org/2000/svg">
<path d="M355.785 19.029C362.681 25.8533 366.096 37.3864 364.997 54.0064C363.904 70.5521 358.37 91.0979 348.646 114.375C329.224 160.87 293.633 216.971 246.373 271.46C199.113 325.95 149.459 368.133 107.54 392.363C86.5531 404.494 67.7968 411.954 52.4358 414.38C37.0059 416.817 25.9803 414.059 19.0846 407.234C12.1889 400.41 8.7743 388.877 9.87267 372.257C10.9661 355.711 16.5003 335.166 26.224 311.888C45.6465 265.393 81.2368 209.292 128.497 154.803C175.757 100.314 225.411 58.1309 267.33 33.9004C288.317 21.7695 307.073 14.3092 322.434 11.8834C337.864 9.44674 348.89 12.2046 355.785 19.029ZM252.032 277.061C299.704 222.098 335.832 165.263 355.679 117.753C365.598 94.0073 371.496 72.4824 372.677 54.6221C373.855 36.7874 370.341 22.2512 361.005 13.0114C351.668 3.77159 337.832 1.1364 321.274 3.75114C304.693 6.36962 285.05 14.2923 263.642 26.667C220.806 51.4267 170.509 94.2389 122.838 149.202C75.1664 204.166 39.0376 261 19.191 308.511C9.27181 332.256 3.37367 353.781 2.19332 371.641C1.01466 389.476 4.52904 404.012 13.8654 413.252C23.2017 422.492 37.0383 425.127 53.5959 422.512C70.1774 419.894 89.8199 411.971 111.228 399.596C154.064 374.837 204.361 332.024 252.032 277.061Z" fill="#FF42CA" stroke="#FF42CA" stroke-width="4"/>
</svg>
