<svg width="366" height="417" viewBox="0 0 366 417" fill="none" xmlns="http://www.w3.org/2000/svg">
<path d="M345.513 7.5826L344.203 9.09348L345.624 10.5003C353.138 17.9364 356.617 30.1743 355.587 46.9858C354.559 63.7522 349.064 84.3882 339.454 107.593C320.25 153.963 284.974 209.727 238.108 263.763C191.242 317.798 141.878 359.62 100.058 383.608C79.131 395.613 60.2874 403.038 44.7154 405.41C29.1015 407.789 17.4131 405.017 9.89936 397.581L8.47781 396.174L7.16738 397.685L4.57455 400.674L3.26412 402.185L4.68566 403.592C14.6182 413.422 29.0905 416.097 45.844 413.544C62.6409 410.985 82.3753 403.1 103.729 390.851C146.473 366.332 196.486 323.877 243.767 269.363C291.049 214.849 326.866 158.345 346.494 110.951C356.3 87.273 362.156 65.6531 363.265 47.5679C364.37 29.5294 360.771 14.3189 350.838 4.48911L349.416 3.08227L348.106 4.59315L345.513 7.5826Z" fill="#FF42CA" stroke="#FF42CA" stroke-width="4"/>
</svg>
