<svg width="382" height="449" viewBox="0 0 382 449" fill="none" xmlns="http://www.w3.org/2000/svg">
<path d="M21.0424 18.6564C13.6894 25.6595 9.85965 37.6434 10.5965 54.999C11.3301 72.2778 16.582 93.8073 26.1177 118.259C45.1647 167.099 80.7733 226.259 128.541 283.96C176.309 341.661 226.866 386.584 269.829 412.647C291.338 425.696 310.648 433.836 326.558 436.661C342.538 439.499 354.085 436.837 361.438 429.834C368.792 422.831 372.621 410.847 371.884 393.492C371.151 376.213 365.899 354.684 356.363 330.232C337.316 281.391 301.708 222.232 253.94 164.531C206.171 106.83 155.615 61.9069 112.652 35.8435C91.1432 22.7952 71.8329 14.655 55.9234 11.8298C39.943 8.99203 28.3955 11.6534 21.0424 18.6564ZM122.643 289.577C74.4683 231.385 38.3296 171.466 18.8752 121.581C9.15193 96.6485 3.55296 74.1125 2.76229 55.4896C1.97272 36.8928 5.97505 21.8403 15.8737 12.4128C25.7723 2.9854 40.1811 0.503233 57.3042 3.54393C74.4514 6.58889 94.6525 15.2178 116.584 28.5228C160.466 55.1436 211.662 100.721 259.838 158.914C308.013 217.106 344.151 277.024 363.606 326.91C373.329 351.842 378.928 374.378 379.719 393.001C380.508 411.598 376.506 426.65 366.607 436.078C356.709 445.505 342.3 447.988 325.177 444.947C308.03 441.902 287.828 433.273 265.897 419.968C222.015 393.347 170.818 347.77 122.643 289.577Z" fill="#29CBFF" stroke="#29CBFF" stroke-width="4"/>
</svg>
