<svg width="371" height="440" viewBox="0 0 371 440" fill="none" xmlns="http://www.w3.org/2000/svg">
<path d="M21.7078 7.77977L22.9792 9.3155L21.5266 10.6989C13.5169 18.3273 9.60316 31.0442 10.2646 48.5983C10.9243 66.1058 16.1333 87.7287 25.5528 112.102C44.3762 160.809 79.6657 219.612 127.036 276.832C174.406 334.052 224.67 378.593 267.535 404.403C288.986 417.318 308.387 425.423 324.518 428.197C340.691 430.978 352.927 428.314 360.936 420.685L362.389 419.302L363.66 420.838L366.281 424.003L367.552 425.539L366.099 426.922C355.567 436.953 340.497 439.464 323.169 436.485C305.796 433.498 285.499 424.906 263.621 411.733C219.829 385.365 168.919 340.166 121.138 282.449C73.357 224.733 37.5341 165.164 18.3036 115.405C8.69609 90.5447 3.14282 67.9106 2.43232 49.0547C1.72361 30.247 5.83097 14.4932 16.3634 4.46204L17.816 3.07867L19.0873 4.6144L21.7078 7.77977Z" fill="#29CBFF" stroke="#29CBFF" stroke-width="4"/>
</svg>
