<svg width="869" height="867" viewBox="0 0 869 867" fill="none" xmlns="http://www.w3.org/2000/svg">
<mask id="mask0_379_383" style="mask-type:alpha" maskUnits="userSpaceOnUse" x="0" y="0" width="869" height="867">
<ellipse cx="434.5" cy="433.146" rx="434.5" ry="433.146" fill="#C9C9C9"/>
</mask>
<g mask="url(#mask0_379_383)">
<ellipse rx="463.453" ry="461.608" transform="matrix(0.889476 0.456982 -0.461986 0.886887 431.934 404.016)" fill="white"/>
<ellipse rx="463.453" ry="461.608" transform="matrix(0.889476 0.456982 -0.461986 0.886887 482.024 271.528)" fill="#DBFF29"/>
<ellipse rx="463.453" ry="461.608" transform="matrix(0.889476 0.456982 -0.461986 0.886887 532.114 139.044)" fill="white"/>
<ellipse rx="463.453" ry="461.608" transform="matrix(0.889476 0.456982 -0.461986 0.886887 586.591 1.11555)" fill="#DBFF29"/>
<ellipse rx="463.453" ry="461.608" transform="matrix(0.889476 0.456982 -0.461986 0.886887 632.29 -125.925)" fill="white"/>
<ellipse rx="463.453" ry="461.608" transform="matrix(0.889476 0.456982 -0.461986 0.886887 682.38 -258.411)" fill="#DBFF29"/>
<ellipse rx="463.453" ry="461.608" transform="matrix(0.889476 0.456982 -0.461986 0.886887 419.001 414.251)" fill="white"/>
<ellipse rx="463.453" ry="461.608" transform="matrix(0.889476 0.456982 -0.461986 0.886887 471.282 279.584)" fill="#DBFF29"/>
<ellipse rx="463.453" ry="461.608" transform="matrix(0.889476 0.456982 -0.461986 0.886887 579.634 167.224)" fill="white"/>
<ellipse rx="463.453" ry="461.608" transform="matrix(0.889476 0.456982 -0.461986 0.886887 568.661 32.1062)" fill="#DBFF29"/>
<ellipse rx="463.453" ry="461.608" transform="matrix(0.889476 0.456982 -0.461986 0.886887 612.548 -135.706)" fill="white"/>
<ellipse rx="463.453" ry="461.608" transform="matrix(0.889476 0.456982 -0.461986 0.886887 754.091 -185.828)" fill="#DBFF29"/>
</g>
</svg>
